<svg xmlns="http://www.w3.org/2000/svg" version="1.1" xmlns:xlink="http://www.w3.org/1999/xlink" xmlns:svgjs="http://svgjs.dev/svgjs" width="1000" height="1000" viewBox="0 0 1000 1000"><rect width="1000" height="1000" fill="#000000"></rect><g transform="matrix(0.7,0,0,0.7,149.57575757575756,428.2020426266886)"><svg viewBox="0 0 396 81" data-background-color="#282634" preserveAspectRatio="xMidYMid meet" height="204" width="1000" xmlns="http://www.w3.org/2000/svg" xmlns:xlink="http://www.w3.org/1999/xlink"><g id="tight-bounds" transform="matrix(1,0,0,1,0.2400000000000091,0.22573212351699112)"><svg viewBox="0 0 395.52 80.548535752966" height="80.548535752966" width="395.52"><g><svg viewBox="0 0 526.6048476520206 107.24425919999999" height="80.548535752966" width="395.52"><g transform="matrix(1,0,0,1,131.08484765202056,3.128668909331381)"><svg viewBox="0 0 395.52 100.98692138133723" height="100.98692138133723" width="395.52"><g id="textblocktransform"><svg viewBox="0 0 395.52 100.98692138133723" height="100.98692138133723" width="395.52" id="textblock"><g><svg viewBox="0 0 395.52 100.98692138133723" height="100.98692138133723" width="395.52"><g transform="matrix(1,0,0,1,0,0)"><svg width="395.52" viewBox="3.6500000953674316 -34.349998474121094 136.0900115966797 34.75" height="100.98692138133723" data-palette-color="#ff4057"><path d="M21.05-18.35L21.05-14.05 8.8-14.05 8.8 0 3.65 0 3.65-33.7 22.75-33.7 22.75-29.4 8.8-29.4 8.8-18.35 21.05-18.35ZM47.3-4.55L47.3 0 28.35 0 28.35-33.7 33.5-33.7 33.5-4.55 47.3-4.55ZM57.85-33.7L57.85 0 52.75 0 52.75-33.7 57.85-33.7ZM77.44-12.65L69.79 0 63.64 0 74.44-17.05 64.24-33.7 70.19-33.7 77.34-21.6 84.39-33.7 90.54-33.7 80.34-17 91.49 0 85.44 0 77.44-12.65ZM102.44-33.7L102.44 0 97.34 0 97.34-33.7 102.44-33.7ZM135.59-29.63Q139.74-24.9 139.74-17 139.74-9.1 135.56-4.35 131.39 0.4 124.29 0.4L124.29 0.4Q117.24 0.4 113.01-4.35 108.79-9.1 108.79-17L108.79-17Q108.79-24.85 112.99-29.6 117.19-34.35 124.24-34.35L124.24-34.35Q131.44-34.35 135.59-29.63ZM116.86-26.18Q114.19-22.8 114.19-17 114.19-11.2 116.94-7.8 119.69-4.4 124.29-4.4L124.29-4.4Q129.04-4.4 131.69-7.75 134.34-11.1 134.34-17L134.34-17Q134.34-22.85 131.66-26.2 128.99-29.55 124.24-29.55L124.24-29.55Q119.54-29.55 116.86-26.18Z" opacity="1" transform="matrix(1,0,0,1,0,0)" fill="#ffffff" class="undefined-text-0" data-fill-palette-color="primary" id="text-0"></path></svg></g></svg></g></svg></g></svg></g><g><svg viewBox="0 0 107.24425919999999 107.24425919999999" height="107.24425919999999" width="107.24425919999999"><g><svg></svg></g><g id="icon-0"><svg viewBox="0 0 107.24425919999999 107.24425919999999" height="107.24425919999999" width="107.24425919999999"><g><rect width="97.51283568" height="97.51283568" x="4.865711759999996" y="4.865711759999996" fill="#ffffff" data-fill-palette-color="accent"></rect><rect width="97.51283568" height="97.51283568" x="9.731423519999996" y="-2.6645352591003757e-15" fill="#ffffff" opacity="0.5" data-fill-palette-color="accent"></rect></g><g transform="matrix(1,0,0,1,13.902033599999996,23.95169644337349)"><svg viewBox="0 0 79.440192 59.34086631325301" height="59.34086631325301" width="79.440192"><g><svg xmlns="http://www.w3.org/2000/svg" xmlns:xlink="http://www.w3.org/1999/xlink" version="1.1" x="0" y="0" viewBox="8 19 83 62" enable-background="new 0 0 100 100" xml:space="preserve" height="59.34086631325301" width="79.440192" class="icon-s-0" data-fill-palette-color="background" id="s-0"><g fill="#282634" data-fill-palette-color="background"><path fill="#282634" d="M83.891 19H15.109C11.189 19 8 22.113 8 25.939v48.121C8 77.887 11.189 81 15.109 81h68.783C87.811 81 91 77.887 91 74.061V25.939C91 22.113 87.811 19 83.891 19zM22 47h-8v-8h8V47zM14 53h8v8h-8V53zM28 25h43.125v50H28V25zM76.992 33v-8h6c1.105 0 2 0.895 2 2v6C84.992 33 77.048 32.997 76.992 33M76.992 47v-8h8v8C84.992 47 77.048 46.997 76.992 47M76.992 61v-8h8v8C84.992 61 77.048 60.997 76.992 61M77 75v-8h8v5.999c0 1.105-0.891 2-1.995 2C80.647 74.999 77.038 74.998 77 75M16 25h6v8h-8v-6C14 25.9 14.9 25 16 25zM14 73v-6h8v8h-6C14.9 75 14 74.1 14 73z" data-fill-palette-color="background"></path><path fill="#282634" d="M57.373 49.852L44.38 40.534C43.385 39.821 42 40.532 42 41.756v18.636c0 1.224 1.385 1.935 2.38 1.222l12.993-9.318C58.209 51.696 58.209 50.452 57.373 49.852z" data-fill-palette-color="background"></path></g></svg></g></svg></g></svg></g></svg></g></svg></g><defs></defs></svg><rect width="395.52" height="80.548535752966" fill="none" stroke="none" visibility="hidden"></rect></g></svg></g></svg>